<svg width="1200" height="800" viewBox="0 0 1200 800" xmlns="http://www.w3.org/2000/svg">
  <rect width="1200" height="800" fill="#EDEBE7"/>
  <rect x="140" y="180" width="920" height="500" rx="16" fill="none" stroke="#C4C0BC" stroke-width="1.5"/>
  <rect x="140" y="180" width="920" height="40" rx="16" fill="#D8D4CE"/>
  <rect x="164" y="196" width="8" height="8" rx="4" fill="#C0BCBA"/>
  <rect x="180" y="196" width="8" height="8" rx="4" fill="#C0BCBA"/>
  <rect x="196" y="196" width="8" height="8" rx="4" fill="#C0BCBA"/>
  <rect x="160" y="260" width="400" height="20" rx="10" fill="#C8C4C0"/>
  <rect x="160" y="294" width="560" height="12" rx="6" fill="#D4D0CC"/>
  <rect x="160" y="314" width="480" height="12" rx="6" fill="#D4D0CC"/>
  <rect x="160" y="334" width="520" height="12" rx="6" fill="#D4D0CC"/>
  <rect x="160" y="380" width="380" height="240" rx="12" fill="#D0CBC4"/>
  <rect x="560" y="380" width="480" height="110" rx="12" fill="#D4D0CA"/>
  <rect x="560" y="500" width="480" height="120" rx="12" fill="#D0CBCA"/>
  <text x="600" y="728" fill="#A89F96" font-size="11" text-anchor="middle" font-family="system-ui,sans-serif" letter-spacing="3">WEB EXPERIENCE DESIGN — REPLACE WITH YOUR COVER IMAGE</text>
</svg>